<svg width="158" height="147" viewBox="0 0 158 147" fill="none" xmlns="http://www.w3.org/2000/svg">
<path d="M74.5996 33.5933L50.8428 69.946V137.39L74.5996 97.6888V33.5933Z" fill="#B0B0D0"/>
<path d="M74.7617 32.9556L155.439 41.1063V104.385L74.7617 96.0866V32.9556Z" fill="#BABADE"/>
<path d="M74.4414 33.5933L155.119 41.744V105.023L74.4414 96.7243V33.5933Z" fill="#C7C7E3"/>
<path d="M132.3 81.1905L97.5596 65.3384C96.6032 64.9044 96.1878 63.7623 96.632 62.7714L117.928 15.6621C118.367 14.686 119.497 14.2506 120.468 14.6897L155.208 30.5417C156.165 30.9758 156.58 32.1178 156.136 33.1088L134.84 80.218C134.401 81.1942 133.271 81.6297 132.3 81.1905Z" fill="#9368EE"/>
<path d="M111.719 68.3253L72.9697 66.0357C71.897 65.9761 71.0896 65.0628 71.1506 63.9881L74.2464 12.3931C74.3074 11.3184 75.235 10.5135 76.293 10.5679L115.042 12.8575C116.115 12.9171 116.917 13.8452 116.861 14.9052L113.765 66.5001C113.704 67.5748 112.792 68.3849 111.719 68.3253Z" fill="#F9B508"/>
<path d="M114.507 97.9258L79.226 80.3886C78.2435 79.9146 77.8522 78.7363 78.3345 77.768L101.401 31.1585C101.883 30.1903 103.049 29.7983 104.023 30.2854L139.29 47.8137C140.264 48.3008 140.664 49.466 140.182 50.4342L117.115 97.0437C116.655 98.0078 115.48 98.4128 114.507 97.9258Z" fill="white"/>
<path d="M123.367 59.7107C117.947 58.5354 113.442 51.3527 111.81 46.9778C111.026 44.7577 111.026 42.0805 111.287 39.7952C111.613 37.5098 112.658 35.1593 114.552 33.788C116.707 32.2862 119.776 32.2207 121.996 33.5919C124.216 35.0285 125.456 36.9221 125.979 39.7952C128.199 37.9015 130.027 37.3139 132.9 36.8568C134.99 36.5303 137.34 36.7264 138.973 38.0323C141.062 39.7953 141.258 43.0602 140.148 45.5415C138.973 48.0228 136.818 51.0917 134.141 53.3771C131.137 55.989 127.219 58.3395 123.367 59.7107Z" fill="#FF5856"/>
<path d="M145.957 28.3365C142.458 27.5776 139.549 22.9399 138.495 20.1151C137.989 18.6817 137.989 16.9531 138.157 15.4774C138.368 14.0018 139.043 12.4841 140.265 11.5988C141.657 10.6291 143.638 10.5868 145.072 11.4722C146.505 12.3997 147.306 13.6224 147.644 15.4774C149.077 14.2548 150.258 13.8753 152.113 13.5802C153.462 13.3694 154.98 13.496 156.034 14.3392C157.383 15.4776 157.509 17.5856 156.793 19.1877C156.034 20.7898 154.642 22.7714 152.914 24.247C150.974 25.9334 148.445 27.4511 145.957 28.3365Z" fill="#FF5856"/>
<path d="M116.033 77.6231C118.317 76.5339 119.572 72.4443 119.843 70.053C119.96 68.8436 119.683 67.4699 119.33 66.3207C118.948 65.1773 118.241 64.065 117.258 63.5313C116.146 62.954 114.777 63.1957 113.933 64.0984C113.097 65.0347 112.742 66.1176 112.809 67.6386C111.627 66.8662 110.754 66.7287 109.431 66.7519C108.47 66.7718 107.447 67.0833 106.858 67.8998C106.113 68.9918 106.365 70.6846 107.115 71.8582C107.894 73.0259 109.169 74.4073 110.594 75.3398C112.198 76.4105 114.181 77.2651 116.033 77.6231Z" fill="#FF5856"/>
<path d="M50.8438 68.9907L135.348 77.76V145.842L50.8438 136.913V68.9907Z" fill="white"/>
<path d="M50.8438 69.9424L135.348 78.7117V146.793L50.8438 137.865V69.9424Z" fill="#EBEBF9"/>
<path d="M155.436 41.0405L135.346 77.7515V146.734L155.436 104.385V41.0405Z" fill="white"/>
<path d="M155.119 42.2041L135.348 78.8199V146.798L155.119 104.769V42.2041Z" fill="#F5F5FD"/>
<path d="M92.4966 127.496C103.067 127.496 111.636 118.927 111.636 108.357C111.636 97.7867 103.067 89.2178 92.4966 89.2178C81.9263 89.2178 73.3574 97.7867 73.3574 108.357C73.3574 118.927 81.9263 127.496 92.4966 127.496Z" fill="#6933DC"/>
<path d="M97.491 104.193H99.5713C100.261 104.193 100.82 103.634 100.82 102.944C100.82 102.255 100.261 101.696 99.5713 101.696H92.9142C92.2249 101.696 91.666 102.255 91.666 102.944C91.666 103.634 92.2249 104.193 92.9142 104.193H94.9946V109.602C94.9946 110.291 95.5534 110.85 96.2428 110.85C96.9321 110.85 97.491 110.291 97.491 109.602V104.193Z" fill="white"/>
<path d="M85.8379 107.111C85.8379 106.422 86.3968 105.863 87.0861 105.863C87.7754 105.863 88.3343 106.422 88.3343 107.111V113.769C88.3343 114.458 87.7754 115.017 87.0861 115.017C86.3968 115.017 85.8379 114.458 85.8379 113.769V107.111Z" fill="white"/>
<path d="M85.8379 102.944C85.8379 102.255 86.3968 101.696 87.0861 101.696C87.7754 101.696 88.3343 102.255 88.3343 102.944C88.3343 103.634 87.7754 104.193 87.0861 104.193C86.3968 104.193 85.8379 103.634 85.8379 102.944Z" fill="white"/>
<path d="M96.2404 112.521C95.5511 112.521 94.9922 113.079 94.9922 113.769C94.9922 114.458 95.5511 115.017 96.2404 115.017C96.9297 115.017 97.4886 114.458 97.4886 113.769C97.4886 113.079 96.9297 112.521 96.2404 112.521Z" fill="white"/>
<path d="M2.34632 84.2914L39.9175 117.127L101.745 35.0802L59.267 8.39735L2.34632 84.2914Z" fill="#C4C4C4"/>
<path d="M2.34632 84.2914L39.9175 117.127L101.745 35.0802L59.267 8.39735L2.34632 84.2914Z" fill="url(#paint0_linear_10717_133143)"/>
<rect width="24.7846" height="102.734" transform="matrix(0.798636 0.601815 0.601815 -0.798636 39.8145 117.071)" fill="#E8E8FF"/>
<path d="M25.942 52.5649L37.5812 37.2582L77.4415 67.0735L64.8455 84.0854L25.942 52.5649Z" fill="url(#paint1_linear_10717_133143)"/>
<path d="M64.3778 84.3089L76.9737 67.408L96.4257 83.0819L83.9892 99.345L64.3778 84.3089Z" fill="#C7C7E3"/>
<path d="M72.4995 16.644L84.7766 24.2956L24.8264 104.018L13.506 94.1327L72.4995 16.644Z" fill="url(#paint2_linear_10717_133143)"/>
<path d="M42.049 70.9588C48.5195 75.8347 57.7177 74.542 62.5936 68.0715C67.4695 61.6009 66.1768 52.4028 59.7062 47.5269C53.2357 42.651 44.0375 43.9437 39.1616 50.4142C34.2857 56.8848 35.5784 66.0829 42.049 70.9588Z" fill="#6933DC"/>
<path d="M55.8575 58.9949L57.131 59.9546C57.553 60.2725 58.1529 60.1882 58.4709 59.7663C58.7889 59.3443 58.7045 58.7444 58.2826 58.4264L54.2074 55.3556C53.7855 55.0376 53.1856 55.1219 52.8676 55.5439C52.5496 55.9658 52.6339 56.5658 53.0559 56.8837L54.3294 57.8434L51.8343 61.1544C51.5163 61.5764 51.6006 62.1763 52.0226 62.4943C52.4446 62.8123 53.0445 62.7279 53.3625 62.306L55.8575 58.9949Z" fill="white"/>
<path d="M47.3773 55.4081C47.6953 54.9861 48.2952 54.9018 48.7172 55.2198C49.1392 55.5378 49.2235 56.1377 48.9055 56.5597L45.8347 60.6348C45.5167 61.0568 44.9168 61.1411 44.4948 60.8231C44.0728 60.5051 43.9885 59.9052 44.3065 59.4833L47.3773 55.4081Z" fill="white"/>
<path d="M49.3012 52.8569C49.6192 52.4349 50.2191 52.3506 50.641 52.6686C51.063 52.9865 51.1473 53.5864 50.8293 54.0084C50.5114 54.4304 49.9115 54.5147 49.4895 54.1967C49.0675 53.8787 48.9832 53.2788 49.3012 52.8569Z" fill="white"/>
<path d="M51.2504 63.5177C50.8284 63.1997 50.2285 63.284 49.9105 63.706C49.5926 64.128 49.6769 64.7279 50.0989 65.0458C50.5208 65.3638 51.1207 65.2795 51.4387 64.8575C51.7567 64.4356 51.6724 63.8357 51.2504 63.5177Z" fill="white"/>
<defs>
<linearGradient id="paint0_linear_10717_133143" x1="73.2979" y1="72.4927" x2="33.7563" y2="42.6771" gradientUnits="userSpaceOnUse">
<stop stop-color="#C7C7E3"/>
<stop offset="1" stop-color="#EBEBF9"/>
</linearGradient>
<linearGradient id="paint1_linear_10717_133143" x1="31.7549" y1="44.7156" x2="70.9966" y2="75.3746" gradientUnits="userSpaceOnUse">
<stop stop-color="#D9D9F2"/>
<stop offset="1" stop-color="#B0B0D0"/>
</linearGradient>
<linearGradient id="paint2_linear_10717_133143" x1="78.8705" y1="19.8451" x2="18.8406" y2="99.5075" gradientUnits="userSpaceOnUse">
<stop stop-color="#B6B6D5"/>
<stop offset="0.46875" stop-color="#DBDBF4"/>
<stop offset="1" stop-color="#B4B4D4"/>
</linearGradient>
</defs>
</svg>
